# xmcd CD database file
#
# Track frame offsets:
#	150
#	18502
#	38543
#	70396
#	90688
#	126397
#	157578
#	188345
#	206295
#	227419
#	249239
#	267836
#	288676
#	307046
#	328452
#
# Disc length: 4692 seconds
#
# Revision: 0
# Processed by: cddbd v1.5.2PL0 Copyright (c) Steve Scherf et al.
# Submitted via: CDex 1.51
#
DISCID=c812520f
DTITLE=BARRY WHITE - LOVE SONGS
DYEAR=2004
DGENRE=Jazz
TTITLE0=01 - Love's theme
TTITLE1=02 - Can't Get Enough Of Your Love, Babe
TTITLE2=03 - I'm Gonna Love You Just A Little More Baby
TTITLE3=04 - You're My First, My Last, My Everything
TTITLE4=05 - Never Never Gonna Give You Up
TTITLE5=06 - Just The Way You Are
TTITLE6=07 - It's Ecstasy When You Lay Down Next To Me
TTITLE7=08 - Practice What You Preach
TTITLE8=09 - Walkin' In The Rain With The One I Love
TTITLE9=10 - Dark and Lovely (You Over There)
TTITLE10=11 - It May Be Winter Outside (But In My Heart Is Spring)
TTITLE11=12 - Don't Meke Me Wait Too Long
TTITLE12=13 - I'll Do For You Anything You Want Me To Do
TTITLE13=14 - Love Serenade
TTITLE14=15 - Midnight and You
EXTD=YEAR: 2004
EXTT0=
EXTT1=
EXTT2=
EXTT3=
EXTT4=
EXTT5=
EXTT6=
EXTT7=
EXTT8=
EXTT9=
EXTT10=
EXTT11=
EXTT12=
EXTT13=
EXTT14=
PLAYORDER=
